<svg xmlns="http://www.w3.org/2000/svg" xmlns:xlink="http://www.w3.org/1999/xlink" viewBox="0 0 64 13" width="64" height="13">
	<defs>
		<linearGradient id="shadow-left" x1="0" y1="0" x2="0" y2="100%" gradientTransform="rotate(-75)">
			<stop stop-color="#0020FF" offset="0"/>
			<stop stop-color="#1ABEF1" stop-opacity="0" offset="40%"/>
		</linearGradient>
		<linearGradient id="shadow-top" x1="0" y1="0" x2="0" y2="100%" gradientTransform="rotate(15)">
			<stop stop-color="#0020FF" offset="0"/>
			<stop stop-color="#1ABEF1" stop-opacity="0" offset="40%"/>
		</linearGradient>
	</defs>
	<g id="unavailable">
		<polygon points="3.79 6 7.5 9.7 3.79 11.79" fill="#ffffff" opacity="0.5"/>
		<polygon points="0 1.5 0.5 1 11.58 12.08 11.08 12.58" fill="#ffffff" opacity="0.5"/>
		<polygon points="3.79 3.58 3.79 2.79 11.79 7.29 9.04 8.83" fill="#ffffff" opacity="0.5"/>
		<polygon points="3.79 5 7.5 8.7 3.79 10.79"/>
		<polygon points="0 0.5 0.5 0 11.58 11.08 11.08 11.58"/>
		<polygon points="3.79 2.58 3.79 1.79 11.79 6.29 9.04 7.83"/>
	</g>
	<g id="play">
		<polygon points="20 3 28 7.5 20 12" fill="#ffffff" opacity="0.5"/>
		<polygon points="20 2 28 6.5 20 11"/>
	</g>
	<g id="pause">
		<polygon points="36 3 44 7.5 36 12" fill="#ffffff" opacity="0.5"/>
		<polygon points="36 3 44 7.5 36 12" fill="#ffffff" opacity="0.5"/>
		<polygon points="36 3 44 7.5 36 12" fill="#ffffff" opacity="0.5"/>
		<polygon points="36 2 44 6.5 36 11" fill="#1ABEF1"/>
		<polygon points="36 2 44 6.5 36 11" fill="url(#shadow-left)"/>
		<polygon points="36 2 44 6.5 36 11" fill="url(#shadow-top)"/>
	</g>
	<g id="download">
		<polygon points="51 5 54 5 54 2 57 2 57 5 60 5 55.5 9.5" fill="#ffffff" opacity="0.5"/>
		<rect height="2" width="9" x="51" y="10" fill="#ffffff" opacity="0.5"/>
		<polygon points="51 4 54 4 54 1 57 1 57 4 60 4 55.5 8.5"/>
		<rect height="2" width="9" x="51" y="9"/>
	</g>
</svg>