<svg xmlns="http://www.w3.org/2000/svg" xmlns:xlink="http://www.w3.org/1999/xlink" viewBox="0 0 64 13" width="64" height="13">
	<defs>
		<linearGradient id="shadow-left" x1="0" y1="0" x2="0" y2="100%" gradientTransform="rotate(-75)">
			<stop stop-color="#0450c0" offset="0"/>
			<stop stop-color="#169fde" stop-opacity="0" offset="40%"/>
		</linearGradient>
		<linearGradient id="shadow-top" x1="0" y1="0" x2="0" y2="100%" gradientTransform="rotate(15)">
			<stop stop-color="#0450c0" offset="0"/>
			<stop stop-color="#169fde" stop-opacity="0" offset="40%"/>
		</linearGradient>
	</defs>
	<g id="unavailable">
		<polygon points="3.79 4 7.5 7.7 3.79 9.79" fill="#000000" opacity="0.5"/>
		<polygon points="0 -0.5 0.5 0 11.58 10.08 11.08 10.58" fill="#000000" opacity="0.5"/>
		<polygon points="3.79 1.58 3.79 0.79 11.79 5.29 9.04 6.83" fill="#000000" opacity="0.5"/>
		<polygon points="3.79 5 7.5 8.7 3.79 10.79" fill="#cccccc"/>
  	<polygon points="0 0.5 0.5 0 11.58 11.08 11.08 11.58" fill="#cccccc"/>
		<polygon points="3.79 2.58 3.79 1.79 11.79 6.29 9.04 7.83" fill="#cccccc"/>
	</g>
	<g id="play">
		<polygon points="20 1 28 5.5 20 10" fill="#000000" opacity="0.5"/>
		<polygon points="20 2 28 6.5 20 11" fill="#cccccc"/>
	</g>
	<g id="pause">
		<polygon points="36 1 44 5.5 36 10" fill="#000000" opacity="0.5"/>
		<polygon points="36 1 44 5.5 36 10" fill="#000000" opacity="0.5"/>
		<polygon points="36 1 44 5.5 36 10" fill="#000000" opacity="0.5"/>
		<polygon points="36 2 44 6.5 36 11" fill="#1ABEF1"/>
		<polygon points="36 2 44 6.5 36 11" fill="url(#shadow-left)"/>
		<polygon points="36 2 44 6.5 36 11" fill="url(#shadow-top)"/>
	</g>
	<g id="download">
		<polygon points="51 3 54 3 54 0 57 0 57 3 60 3 55.5 7.5" fill="#000000" opacity="0.5"/>
		<rect height="2" width="9" x="51" y="8" fill="#000000" opacity="0.5"/>
		<polygon points="51 4 54 4 54 1 57 1 57 4 60 4 55.5 8.5" fill="#cccccc"/>
		<rect height="2" width="9" x="51" y="9" fill="#cccccc"/>
	</g>
</svg>