<svg xmlns="http://www.w3.org/2000/svg" viewBox="-289 421.4 48 13" enable-background="new -289 421.4 48 13" xmlns:xlink="http://www.w3.org/1999/xlink"><defs><path id="0" d="m-253 424.4l8 4.5-8 4.5z" opacity=".5" fill="#fff"/></defs><g fill="#fff"><path opacity=".5" d="m-285.2 427.4l3.7 3.7-3.7 2.1z"/><path opacity=".5" d="m-289 422.9l.5-.5 11.1 11.1-.5.5z"/><path opacity=".5" d="m-285.2 425v-.8l8 4.5-2.8 1.5z"/></g><path d="m-285.2 426.4l3.7 3.7-3.7 2.1z"/><path d="m-289 421.9l.5-.5 11.1 11.1-.5.5z"/><path d="m-285.2 424v-.8l8 4.5-2.8 1.5z"/><path opacity=".5" fill="#fff" d="m-269 424.4l8 4.5-8 4.5z"/><path d="m-269 423.4l8 4.5-8 4.5z"/><use xlink:href="#0"/><use xlink:href="#0"/><use xlink:href="#0"/><path fill="#f59331" d="m-253 423.4l8 4.5-8 4.5z"/></svg>